<mxfile host="app.diagrams.net" modified="2024-07-06T14:08:25.190Z" agent="Mozilla/5.0 (Windows NT 10.0; Win64; x64) AppleWebKit/537.36 (KHTML, like Gecko) Chrome/126.0.0.0 Safari/537.36" version="24.6.4" etag="7jcKICjh7ZDHEeYdxp55" type="github">
  <diagram name="Страница — 1" id="N4gfZ63CJQXS2LRk0JV_">
    <mxGraphModel>
      <root>
        <mxCell id="0" />
        <mxCell id="1" parent="0" />
      </root>
    </mxGraphModel>
  </diagram>
</mxfile>
